<svg id="Layer_1" data-name="Layer 1" xmlns="http://www.w3.org/2000/svg" viewBox="0 0 251.34 80.8"><defs><style>.cls-1{fill:#fff;stroke:#231f20;stroke-linecap:round;stroke-linejoin:round;stroke-width:2px;}.cls-2{fill:#231f20;}</style></defs><path class="cls-1" d="M34.56,42.64a10.43,10.43,0,1,1,2.19-10.35,10.23,10.23,0,0,1,.51,4.11" transform="translate(-15.42 -8.43)"/><path class="cls-1" d="M53,71.77a10.43,10.43,0,1,1-5.14-3.84" transform="translate(-15.42 -8.43)"/><path class="cls-1" d="M59.14,20.89a6,6,0,1,1,5.29-.2" transform="translate(-15.42 -8.43)"/><path class="cls-1" d="M71,39.57a8.1,8.1,0,1,1,.59,7.14" transform="translate(-15.42 -8.43)"/><path class="cls-1" d="M78,60.28a4.5,4.5,0,1,1-3.34,2.15" transform="translate(-15.42 -8.43)"/><path class="cls-1" d="M71.28,56.17A17,17,0,1,1,68,32.37" transform="translate(-15.42 -8.43)"/><path class="cls-2" d="M176,38.54a.28.28,0,0,0-.21-.1h-7a.26.26,0,0,0-.24.19c-.15.53-3.07,11.43-4,15.08-.87-3.7-3.83-14.55-4-15.09a.26.26,0,0,0-.24-.18h-7a.28.28,0,0,0-.21.1.27.27,0,0,0,0,.23l7.51,23a.26.26,0,0,0,.24.17h7.33a.26.26,0,0,0,.24-.17l7.54-23A.27.27,0,0,0,176,38.54Z" transform="translate(-15.42 -8.43)"/><rect class="cls-2" x="165.13" y="30.01" width="6.75" height="23.53" rx="0.25"/><path class="cls-2" d="M212.51,41.34c-2-1.92-5-2.9-8.74-2.9h-8a.25.25,0,0,0-.25.25v23a.25.25,0,0,0,.25.25h7.45c3.89,0,6.95-1.07,9.1-3.19s3.25-5.17,3.25-9.06C215.6,46.09,214.56,43.27,212.51,41.34ZM209,49.94a7.62,7.62,0,0,1-1.6,4.88,4.79,4.79,0,0,1-4,1.55H202V44h1.81a4.42,4.42,0,0,1,3.61,1.43A7.05,7.05,0,0,1,209,49.94Z" transform="translate(-15.42 -8.43)"/><rect class="cls-2" x="203.25" y="40.68" width="9.4" height="5.42" rx="0.25"/><path class="cls-2" d="M244.6,38.44H239a.23.23,0,0,0-.16.06l-7.91,6.44a.25.25,0,0,0,0,.35l3.23,4a.25.25,0,0,0,.35,0c.31-.23,2.62-2,3.65-2.88-.05,3-.08,14.76-.08,15.3a.29.29,0,0,0,.07.18.24.24,0,0,0,.18.07h6.32a.25.25,0,0,0,.25-.25v-23A.25.25,0,0,0,244.6,38.44Z" transform="translate(-15.42 -8.43)"/><path class="cls-2" d="M149.22,41.47c-1.93-2-4.79-3.08-8.51-3.08s-6.58,1-8.54,3.11-2.94,5.07-2.94,9,1,7,3,9,4.83,3.12,8.5,3.12,6.59-1.05,8.53-3.11,2.92-5.08,2.92-9S151.15,43.52,149.22,41.47Zm-3.16,9a6.06,6.06,0,0,1-1.36,4.27,6.29,6.29,0,0,1-8,0,6,6,0,0,1-1.39-4.28,6,6,0,0,1,1.38-4.25,6.33,6.33,0,0,1,8,0A6,6,0,0,1,146.06,50.49Z" transform="translate(-15.42 -8.43)"/><path class="cls-2" d="M264.39,41.1a8.29,8.29,0,0,0-6.73-2.9,7.78,7.78,0,0,0-8.41,8.43A8.59,8.59,0,0,0,251,52.31a6.07,6.07,0,0,0,4.86,2.09A22.41,22.41,0,0,0,260,54a4.26,4.26,0,0,1-1.25,1.59,8.11,8.11,0,0,1-5,1.33,14.19,14.19,0,0,1-2.67-.25.24.24,0,0,0-.2.06.25.25,0,0,0-.09.19v4.93a.25.25,0,0,0,.21.25,24.16,24.16,0,0,0,3.25.16c4.33,0,7.53-1,9.51-3.1s3-5.41,3-10C266.76,45.74,266,43,264.39,41.1Zm-6.5,8.58c-1.61,0-2.93-1.59-2.93-3.55s1.32-3.55,2.93-3.55,2.93,1.59,2.93,3.55S259.51,49.68,257.89,49.68Z" transform="translate(-15.42 -8.43)"/><path class="cls-2" d="M126.41,53.41a.22.22,0,0,0-.19-.09h-5.9a.25.25,0,0,0-.23.15,4.47,4.47,0,0,1-.81,1.29,6.29,6.29,0,0,1-8,0,6,6,0,0,1-1.38-4.28,6,6,0,0,1,1.38-4.25,6.33,6.33,0,0,1,8,0,4.5,4.5,0,0,1,.64.92.25.25,0,0,0,.22.13h6a.25.25,0,0,0,.19-.09.23.23,0,0,0,.05-.21,10.64,10.64,0,0,0-2.59-5.49c-1.93-2-4.79-3.08-8.51-3.08s-6.59,1-8.54,3.11-3,5.07-3,9,1,7,3,9,4.83,3.12,8.49,3.12,6.59-1.05,8.54-3.11a11,11,0,0,0,2.67-5.88A.24.24,0,0,0,126.41,53.41Z" transform="translate(-15.42 -8.43)"/></svg>